<svg data-v-423bf9ae="" xmlns="http://www.w3.org/2000/svg" viewBox="0 0 322 90" class="iconLeft"><!----><!----><!----><g data-v-423bf9ae="" id="1276d043-953c-4d0f-873f-8312d570c27f" fill="black" transform="matrix(5.555555457440915,0,0,5.555555457440915,126.28867226152258,0.666667820494844)"><path d="M0.56 4.76C0.46 4.83 0.43 4.89 0.43 4.98L0.43 5.38C0.43 5.53 0.50 5.57 0.64 5.56L2.51 4.80L2.51 13.01C2.51 13.17 2.55 13.23 2.72 13.23L3.39 13.23C3.56 13.23 3.61 13.17 3.61 13.01L3.61 3.65C3.61 3.49 3.57 3.43 3.39 3.43L2.97 3.43C2.81 3.43 2.67 3.53 2.52 3.61ZM6.85 6.13L5.81 6.13C5.64 6.13 5.59 6.19 5.59 6.36L5.59 6.78C5.59 6.96 5.64 7 5.81 7L6.85 7L6.85 13.01C6.85 13.17 6.89 13.23 7.06 13.23L7.67 13.23C7.84 13.23 7.88 13.17 7.88 13.01L7.88 7L10.42 7C10.57 7 10.63 6.96 10.63 6.78L10.63 6.36C10.63 6.19 10.58 6.13 10.42 6.13L7.88 6.13L7.88 5.77C7.88 4.13 8.37 3.53 9.49 3.53C9.86 3.53 10.05 3.57 10.33 3.68C10.51 3.77 10.56 3.75 10.61 3.57L10.70 3.12C10.74 2.97 10.72 2.93 10.60 2.84C10.11 2.59 9.56 2.58 9.38 2.58C7.53 2.58 6.85 3.74 6.85 5.70ZM17.70 11.77C17.58 11.65 17.53 11.68 17.37 11.76C16.70 12.25 15.86 12.46 15.18 12.46C13.76 12.46 12.57 11.34 12.47 10.04L18.31 10.04C18.49 10.04 18.52 9.98 18.52 9.81C18.52 7.71 17.25 5.95 15.06 5.95C13.02 5.95 11.40 7.63 11.40 9.67C11.40 11.72 13.02 13.38 15.13 13.38C16.17 13.38 17.30 13.05 17.96 12.40C18.06 12.31 18.06 12.22 17.96 12.10ZM12.50 9.31C12.54 8.05 13.61 6.83 15.05 6.83C16.48 6.83 17.39 8.05 17.44 9.31ZM26.10 11.77C25.98 11.65 25.93 11.68 25.77 11.76C25.10 12.25 24.26 12.46 23.58 12.46C22.16 12.46 20.97 11.34 20.87 10.04L26.71 10.04C26.89 10.04 26.92 9.98 26.92 9.81C26.92 7.71 25.65 5.95 23.46 5.95C21.42 5.95 19.80 7.63 19.80 9.67C19.80 11.72 21.42 13.38 23.53 13.38C24.57 13.38 25.70 13.05 26.36 12.40C26.46 12.31 26.46 12.22 26.36 12.10ZM20.90 9.31C20.94 8.05 22.01 6.83 23.45 6.83C24.88 6.83 25.79 8.05 25.84 9.31ZM34.02 7.59C33.85 7.20 33.08 5.95 31.43 5.95C29.47 5.95 28.20 7.62 28.20 9.66C28.20 11.69 29.47 13.38 31.43 13.38C33.08 13.38 33.84 12.24 34.19 11.70L34.30 13.01C34.36 13.17 34.41 13.23 34.54 13.23L34.86 13.23C35.01 13.23 35.07 13.17 35.07 13.01L35.07 3.12C35.07 2.95 35.01 2.90 34.86 2.90L34.23 2.90C34.08 2.90 34.02 2.95 34.02 3.12ZM31.64 12.45C30.17 12.45 29.25 11.21 29.25 9.66C29.25 8.22 30.17 6.90 31.64 6.90C33.10 6.90 34.03 8.27 34.03 9.67C34.03 11.06 33.10 12.45 31.64 12.45Z"></path></g><!----><g data-v-423bf9ae="" id="534ebd23-4ac8-4106-a756-04eb1277cdfe" transform="matrix(1.3021788641435421,0,0,1.3021788641435421,-3.3207320214961413,-6.58658024506223)" stroke="none" fill="black"><path d="M86.02 18.734a7.782 7.782 0 0 0-4.356-4.116L58.47 5.771a7.805 7.805 0 0 0-8.875 2.381L6.007 51.72a7.685 7.685 0 0 0-.842.841l-.104.104.008.008a7.815 7.815 0 0 0-.804 8.865 1.162 1.162 0 0 0 2.123-.223c-.037 1.544.65 3.073 1.803 3.641l23.294 8.892a7.787 7.787 0 0 0 5.99-.17 7.789 7.789 0 0 0 2.899-2.238l43.801-43.742a7.755 7.755 0 0 0 2.013-2.972 7.774 7.774 0 0 0-.168-5.992zM36.524 71.553a5.456 5.456 0 0 1-4.21.12l-23.121-8.82c-.3-.202-.715-1.362-.312-2.304.549-1.285 2.411-.826 3.471-.439 6.023 2.198 18.268 7.018 18.391 7.065a1.164 1.164 0 0 0 .852-2.164c-.123-.05-12.395-4.878-18.445-7.087-4.558-1.662-6.057.888-6.408 1.711-.158.367-.26.759-.313 1.155a1.153 1.153 0 0 0-.137-.396 5.494 5.494 0 0 1 .566-6.234l.708-.708c.38-.314.803-.584 1.266-.791a5.456 5.456 0 0 1 4.21-.119l23.195 8.848a5.47 5.47 0 0 1 3.062 2.893c.6 1.342.642 2.837.118 4.211s-1.551 2.46-2.893 3.059zm47.49-47.658a5.518 5.518 0 0 1-1.447 2.122L42.104 66.423a7.8 7.8 0 0 0-.682-3.092 7.775 7.775 0 0 0-4.355-4.115l-23.195-8.848a7.798 7.798 0 0 0-2.711-.51L51.286 9.753l.087-.099a5.488 5.488 0 0 1 6.268-1.71l23.195 8.847a5.474 5.474 0 0 1 3.061 2.893 5.472 5.472 0 0 1 .117 4.211z"></path><path d="M20.009 50.389a1.94 1.94 0 0 1-1.371-3.309l36.485-36.484a1.94 1.94 0 0 1 2.742 2.741L21.38 49.822a1.934 1.934 0 0 1-1.371.567zM23.596 51.456l16.189 6.107 15.704-15.704-16.201-6.01zM43.081 34.298a.388.388 0 0 1-.274-.662l18.952-18.951a.388.388 0 0 1 .548.548L43.355 34.184a.386.386 0 0 1-.274.114zM45.504 35.202a.386.386 0 0 1-.274-.662l18.951-18.951a.387.387 0 1 1 .549.548L45.779 35.088a.387.387 0 0 1-.275.114zM47.929 36.107a.388.388 0 0 1-.274-.661l18.952-18.952a.388.388 0 0 1 .548.548L48.204 35.994a.393.393 0 0 1-.275.113zM50.353 37.012a.388.388 0 0 1-.274-.662L69.03 17.399a.387.387 0 1 1 .549.548L50.627 36.898a.385.385 0 0 1-.274.114zM52.778 37.917a.388.388 0 0 1-.274-.662l18.951-18.951a.387.387 0 1 1 .549.548L53.052 37.803a.392.392 0 0 1-.274.114zM55.202 38.82a.388.388 0 0 1-.274-.661l18.951-18.951a.386.386 0 0 1 .548 0 .386.386 0 0 1 0 .548L55.475 38.707a.381.381 0 0 1-.273.113zM57.626 39.726a.388.388 0 0 1-.274-.662l18.951-18.951a.388.388 0 0 1 .549.548L57.9 39.612a.385.385 0 0 1-.274.114z"></path></g><!----></svg>